<svg width="177" height="177" viewBox="0 0 177 177" fill="none" xmlns="http://www.w3.org/2000/svg">
<g clip-path="url(#clip0_15_109)">
<path d="M88.5 177C137.377 177 177 137.377 177 88.5C177 39.6228 137.377 0 88.5 0C39.6228 0 0 39.6228 0 88.5C0 137.377 39.6228 177 88.5 177Z" fill="#F96042"/>
<path d="M116.772 89.1599H116.767" stroke="black" stroke-miterlimit="10"/>
<path d="M140.89 45.3159L89.3973 129.23L89.3688 129.272L88.3243 130.977C88.3243 130.977 88.3196 130.982 88.3196 130.986L85.8888 134.946C84.7256 136.845 82.0337 136.85 80.8611 134.96L72.8804 122.066V58.894L82.518 42.1255C83.0545 41.195 84.0277 40.6252 85.0817 40.6252H138.374C140.714 40.6252 142.138 43.2792 140.89 45.3159Z" fill="#00D891"/>
<path d="M116.772 89.1599H116.767" stroke="black" stroke-miterlimit="10"/>
<path d="M120.304 93.0104L141.388 131.983C142.461 133.963 141.027 136.375 138.772 136.375H93.0909C90.7504 136.375 89.3261 133.792 90.5747 131.812L115.172 92.8394C116.387 90.9167 119.222 91.0116 120.304 93.0104Z" fill="#A1CBCA"/>
<path d="M70.5066 122.735V133.014C70.5066 134.87 69.0016 136.375 67.1453 136.375H43.7871C41.9308 136.375 40.4258 134.87 40.4258 133.014V43.9865C40.4258 42.1302 41.9308 40.6252 43.7871 40.6252H67.1453C69.0016 40.6252 70.5066 42.1302 70.5066 43.9865V122.735Z" fill="#F9F4E3"/>
</g>
<defs>
<clipPath id="clip0_15_109">
<rect width="177" height="177" fill="white"/>
</clipPath>
</defs>
</svg>
