<svg width="706" height="193" viewBox="0 0 706 193" fill="none" xmlns="http://www.w3.org/2000/svg">
<path d="M247.792 144L219.214 106.462V144H198.508V58.9942H219.214V96.2902L247.549 58.9942H271.889L238.952 100.649L273.1 144H247.792ZM293.354 69.408C289.721 69.408 286.734 68.3585 284.393 66.2596C282.133 64.08 281.003 61.416 281.003 58.2676C281.003 55.0385 282.133 52.3745 284.393 50.2756C286.734 48.096 289.721 47.0062 293.354 47.0062C296.906 47.0062 299.812 48.096 302.073 50.2756C304.414 52.3745 305.584 55.0385 305.584 58.2676C305.584 61.416 304.414 64.08 302.073 66.2596C299.812 68.3585 296.906 69.408 293.354 69.408ZM303.647 76.4313V144H282.94V76.4313H303.647ZM359.823 75.7047C367.735 75.7047 374.031 78.288 378.714 83.4545C383.477 88.5404 385.858 95.5636 385.858 104.524V144H365.273V107.309C365.273 102.789 364.102 99.2771 361.761 96.7745C359.42 94.272 356.271 93.0207 352.316 93.0207C348.36 93.0207 345.212 94.272 342.871 96.7745C340.53 99.2771 339.359 102.789 339.359 107.309V144H318.653V76.4313H339.359V85.392C341.458 82.4051 344.283 80.064 347.835 78.3687C351.387 76.5927 355.383 75.7047 359.823 75.7047ZM441.418 75.7047C449.329 75.7047 455.626 78.288 460.308 83.4545C465.071 88.5404 467.452 95.5636 467.452 104.524V144H446.867V107.309C446.867 102.789 445.696 99.2771 443.355 96.7745C441.014 94.272 437.866 93.0207 433.91 93.0207C429.955 93.0207 426.806 94.272 424.465 96.7745C422.124 99.2771 420.954 102.789 420.954 107.309V144H400.247V76.4313H420.954V85.392C423.052 82.4051 425.878 80.064 429.43 78.3687C432.982 76.5927 436.978 75.7047 441.418 75.7047ZM545.535 109.126C545.535 111.063 545.414 113.081 545.172 115.18H498.31C498.633 119.378 499.965 122.607 502.306 124.868C504.728 127.047 507.674 128.137 511.145 128.137C516.312 128.137 519.904 125.957 521.923 121.598H543.961C542.831 126.038 540.772 130.034 537.785 133.586C534.879 137.138 531.206 139.923 526.766 141.941C522.326 143.96 517.361 144.969 511.872 144.969C505.252 144.969 499.359 143.556 494.193 140.731C489.026 137.905 484.99 133.869 482.084 128.621C479.177 123.374 477.724 117.239 477.724 110.216C477.724 103.192 479.137 97.0571 481.963 91.8098C484.869 86.5625 488.905 82.5262 494.072 79.7007C499.238 76.8753 505.172 75.4625 511.872 75.4625C518.411 75.4625 524.223 76.8349 529.309 79.5796C534.395 82.3244 538.351 86.2396 541.176 91.3254C544.082 96.4113 545.535 102.345 545.535 109.126ZM524.344 103.677C524.344 100.125 523.133 97.2993 520.712 95.2004C518.29 93.1015 515.263 92.052 511.63 92.052C508.159 92.052 505.212 93.0611 502.79 95.0793C500.449 97.0975 498.996 99.9633 498.431 103.677H524.344ZM552.342 110.216C552.342 103.192 553.755 97.0571 556.58 91.8098C559.486 86.5625 563.482 82.5262 568.568 79.7007C573.735 76.8753 579.628 75.4625 586.247 75.4625C594.724 75.4625 601.787 77.6825 607.438 82.1225C613.17 86.5625 616.924 92.8189 618.7 100.892H596.661C594.804 95.7251 591.212 93.1418 585.884 93.1418C582.09 93.1418 579.063 94.6353 576.802 97.6222C574.542 100.528 573.412 104.726 573.412 110.216C573.412 115.705 574.542 119.943 576.802 122.93C579.063 125.836 582.09 127.289 585.884 127.289C591.212 127.289 594.804 124.706 596.661 119.54H618.7C616.924 127.451 613.17 133.667 607.438 138.188C601.707 142.708 594.643 144.969 586.247 144.969C579.628 144.969 573.735 143.556 568.568 140.731C563.482 137.905 559.486 133.869 556.58 128.621C553.755 123.374 552.342 117.239 552.342 110.216ZM667.435 126.442V144H656.9C649.392 144 643.54 142.184 639.342 138.551C635.144 134.837 633.045 128.823 633.045 120.508V93.6262H624.811V76.4313H633.045V59.9629H653.752V76.4313H667.314V93.6262H653.752V120.751C653.752 122.769 654.236 124.222 655.205 125.11C656.174 125.998 657.788 126.442 660.048 126.442H667.435ZM688.656 144.969C685.023 144.969 682.037 143.919 679.695 141.82C677.435 139.641 676.305 136.977 676.305 133.828C676.305 130.599 677.435 127.895 679.695 125.715C682.037 123.536 685.023 122.446 688.656 122.446C692.208 122.446 695.114 123.536 697.375 125.715C699.716 127.895 700.886 130.599 700.886 133.828C700.886 136.977 699.716 139.641 697.375 141.82C695.114 143.919 692.208 144.969 688.656 144.969Z" fill="#F7F8FD"/>
<path d="M82.5 178C124.75 178 159 143.75 159 101.5C159 59.2502 124.75 25 82.5 25C40.2502 25 6 59.2502 6 101.5C6 143.75 40.2502 178 82.5 178Z" fill="#F96042"/>
<path d="M106.941 102.07H106.934" stroke="black" stroke-width="0.864407" stroke-miterlimit="10"/>
<path d="M127.786 64.1711L83.2759 136.707L83.2512 136.744L82.3484 138.217C82.3484 138.217 82.3443 138.221 82.3443 138.225L80.2431 141.648C79.2377 143.289 76.9108 143.293 75.8971 141.66L68.9985 130.514V75.9081L77.3294 61.4133C77.7931 60.6089 78.6344 60.1165 79.5455 60.1165H125.611C127.634 60.1165 128.866 62.4105 127.786 64.1711Z" fill="#F7F8FD"/>
<path d="M106.941 102.07H106.934" stroke="black" stroke-width="0.864407" stroke-miterlimit="10"/>
<path d="M109.992 105.399L128.217 139.087C129.144 140.798 127.905 142.883 125.956 142.883H86.4682C84.445 142.883 83.2139 140.651 84.2932 138.939L105.555 105.251C106.606 103.589 109.056 103.671 109.992 105.399Z" fill="#F7F8FD"/>
<path d="M66.9464 131.093V139.978C66.9464 141.582 65.6454 142.883 64.0408 142.883H43.8499C42.2453 142.883 40.9443 141.582 40.9443 139.978V63.022C40.9443 61.4174 42.2453 60.1165 43.8499 60.1165H64.0408C65.6454 60.1165 66.9464 61.4174 66.9464 63.022V131.093Z" fill="#F7F8FD"/>
</svg>
